<?xml version="1.0" encoding="UTF-8" standalone="no"?>
<!-- Generator: Adobe Illustrator 17.1.0, SVG Export Plug-In . SVG Version: 6.00 Build 0)  -->

<svg
   xmlns:dc="http://purl.org/dc/elements/1.1/"
   xmlns:cc="http://creativecommons.org/ns#"
   xmlns:rdf="http://www.w3.org/1999/02/22-rdf-syntax-ns#"
   xmlns:svg="http://www.w3.org/2000/svg"
   xmlns="http://www.w3.org/2000/svg"
   xmlns:sodipodi="http://sodipodi.sourceforge.net/DTD/sodipodi-0.dtd"
   xmlns:inkscape="http://www.inkscape.org/namespaces/inkscape"
   version="1.1"
   id="Capa_1"
   x="0px"
   y="0px"
   viewBox="0 0 336.659 336.659"
   style="enable-background:new 0 0 336.659 336.659;"
   xml:space="preserve"
   sodipodi:docname="dismiss.svg"
   inkscape:version="0.92.3 (2405546, 2018-03-11)"
   inkscape:export-filename="/home/artaud/prog/urbandroid/source/SleepAsFitbit/resources/dismiss.png"
   inkscape:export-xdpi="240"
   inkscape:export-ydpi="240"><metadata
   id="metadata43"><rdf:RDF><cc:Work
       rdf:about=""><dc:format>image/svg+xml</dc:format><dc:type
         rdf:resource="http://purl.org/dc/dcmitype/StillImage" /></cc:Work></rdf:RDF></metadata><defs
   id="defs41" /><sodipodi:namedview
   pagecolor="#ffffff"
   bordercolor="#666666"
   borderopacity="1"
   objecttolerance="10"
   gridtolerance="10"
   guidetolerance="10"
   inkscape:pageopacity="0"
   inkscape:pageshadow="2"
   inkscape:window-width="1366"
   inkscape:window-height="670"
   id="namedview39"
   showgrid="false"
   inkscape:zoom="0.56164237"
   inkscape:cx="78.442621"
   inkscape:cy="142.93608"
   inkscape:window-x="0"
   inkscape:window-y="283"
   inkscape:window-maximized="1"
   inkscape:current-layer="Capa_1" />
<g
   id="g6"
   style="opacity:1;fill:#ffffff"
   inkscape:export-xdpi="240"
   inkscape:export-ydpi="240">
	<path
   d="m 194.03,273.246 h -52.341 c -1.703,0 -3.304,0.744 -4.392,2.041 -2.128,2.537 -1.507,6.06 -1.095,8.391 l 0.034,0.196 c 2.722,15.6 16.207,26.922 32.064,26.922 16.152,0 30.011,-12.047 32.236,-28.021 0.014,-0.098 0.037,-0.208 0.059,-0.327 0.269,-1.418 0.827,-4.369 -1.229,-6.851 -0.727,-0.878 -2.388,-2.351 -5.336,-2.351 z"
   id="path2"
   inkscape:connector-curvature="0"
   style="fill:#ffffff" />
	<path
   d="m 331.534,5.125 c -6.834,-6.834 -17.914,-6.834 -24.749,0 l -64.57,64.57 c -1.386,-2.163 -2.846,-4.298 -4.392,-6.391 C 225.726,46.93 210.658,35.971 192.993,30.683 191.708,18.21 181.137,8.449 168.33,8.449 c -12.808,0 -23.379,9.763 -24.663,22.238 -17.666,5.284 -32.732,16.243 -44.83,32.621 -17.272,23.376 -24.252,51.742 -27.076,71.494 -0.021,0.169 -0.042,0.333 -0.056,0.483 -0.179,1.778 -0.356,3.664 -0.542,5.638 -1.252,13.317 -3.347,35.606 -9.099,44.808 -0.088,0.146 -0.172,0.292 -0.303,0.521 -1.605,2.887 -4.686,5.588 -7.946,8.447 -8.048,7.055 -23.029,20.186 -10.282,43.856 2.313,4.297 6.782,6.967 11.663,6.967 H 66.388 L 5.125,306.785 c -6.834,6.834 -6.834,17.915 0,24.749 3.417,3.417 7.896,5.125 12.375,5.125 4.479,0 8.957,-1.708 12.375,-5.125 l 86.012,-86.012 h 165.577 c 4.875,0 9.343,-2.668 11.663,-6.966 12.745,-23.667 -2.231,-36.8 -10.279,-43.858 -3.261,-2.856 -6.341,-5.554 -7.931,-8.413 -0.103,-0.188 -0.215,-0.378 -0.362,-0.619 -5.713,-9.141 -7.807,-31.427 -9.058,-44.742 -0.185,-1.975 -0.363,-3.865 -0.54,-5.624 -0.016,-0.165 -0.036,-0.329 -0.067,-0.57 -1.287,-9 -3.45,-19.819 -7.066,-31.145 l 73.711,-73.711 c 6.833,-6.834 6.833,-17.914 -0.001,-24.749 z"
   id="path4"
   inkscape:connector-curvature="0"
   style="fill:#ffffff" />
</g>
<g
   id="g8">
</g>
<g
   id="g10">
</g>
<g
   id="g12">
</g>
<g
   id="g14">
</g>
<g
   id="g16">
</g>
<g
   id="g18">
</g>
<g
   id="g20">
</g>
<g
   id="g22">
</g>
<g
   id="g24">
</g>
<g
   id="g26">
</g>
<g
   id="g28">
</g>
<g
   id="g30">
</g>
<g
   id="g32">
</g>
<g
   id="g34">
</g>
<g
   id="g36">
</g>
</svg>