<?xml version="1.0" encoding="UTF-8" standalone="no"?>
<!-- Generator: Adobe Illustrator 18.0.0, SVG Export Plug-In . SVG Version: 6.00 Build 0)  -->

<svg
   xmlns:dc="http://purl.org/dc/elements/1.1/"
   xmlns:cc="http://creativecommons.org/ns#"
   xmlns:rdf="http://www.w3.org/1999/02/22-rdf-syntax-ns#"
   xmlns:svg="http://www.w3.org/2000/svg"
   xmlns="http://www.w3.org/2000/svg"
   xmlns:sodipodi="http://sodipodi.sourceforge.net/DTD/sodipodi-0.dtd"
   xmlns:inkscape="http://www.inkscape.org/namespaces/inkscape"
   version="1.1"
   id="Capa_1"
   x="0px"
   y="0px"
   viewBox="0 0 155.908 155.908"
   style="enable-background:new 0 0 155.908 155.908;"
   xml:space="preserve"
   sodipodi:docname="play.svg"
   inkscape:version="0.92.3 (2405546, 2018-03-11)"
   inkscape:export-filename="/home/artaud/prog/urbandroid/source/SleepAsFitbit/resources/play.png"
   inkscape:export-xdpi="240"
   inkscape:export-ydpi="240"><metadata
   id="metadata41"><rdf:RDF><cc:Work
       rdf:about=""><dc:format>image/svg+xml</dc:format><dc:type
         rdf:resource="http://purl.org/dc/dcmitype/StillImage" /></cc:Work></rdf:RDF></metadata><defs
   id="defs39" /><sodipodi:namedview
   pagecolor="#ffffff"
   bordercolor="#666666"
   borderopacity="1"
   objecttolerance="10"
   gridtolerance="10"
   guidetolerance="10"
   inkscape:pageopacity="0"
   inkscape:pageshadow="2"
   inkscape:window-width="1366"
   inkscape:window-height="670"
   id="namedview37"
   showgrid="false"
   inkscape:zoom="1.7151285"
   inkscape:cx="67.351725"
   inkscape:cy="67.785077"
   inkscape:window-x="0"
   inkscape:window-y="283"
   inkscape:window-maximized="1"
   inkscape:current-layer="Capa_1" />
<g
   id="g4"
   style="fill:#ffffff;fill-opacity:1"
   inkscape:export-xdpi="240"
   inkscape:export-ydpi="240">
	<path
   d="M 143.878,58.015 46.02,6.45 C 36.204,1.278 24.672,1.612 15.172,7.344 5.672,13.076 0,23.122 0,34.218 v 87.473 c 0,11.096 5.672,21.142 15.172,26.874 5.018,3.028 10.601,4.549 16.2,4.549 5.001,0 10.016,-1.215 14.647,-3.655 l 97.858,-51.566 c 7.42,-3.91 12.03,-11.55 12.03,-19.938 0,-8.388 -4.609,-16.029 -12.029,-19.94 z m -8.392,23.953 -97.858,51.566 c -4.249,2.239 -9.045,2.101 -13.157,-0.381 C 20.358,130.671 18,126.493 18,121.69 V 34.218 c 0,-4.803 2.358,-8.981 6.471,-11.462 2.169,-1.309 4.529,-1.966 6.898,-1.966 2.122,0 4.251,0.527 6.259,1.585 l 97.858,51.565 c 2.186,1.152 2.422,3.191 2.422,4.014 0,0.823 -0.236,2.862 -2.422,4.014 z"
   id="path2"
   inkscape:connector-curvature="0"
   style="fill:#ffffff;fill-opacity:1" />
</g>
<g
   id="g6">
</g>
<g
   id="g8">
</g>
<g
   id="g10">
</g>
<g
   id="g12">
</g>
<g
   id="g14">
</g>
<g
   id="g16">
</g>
<g
   id="g18">
</g>
<g
   id="g20">
</g>
<g
   id="g22">
</g>
<g
   id="g24">
</g>
<g
   id="g26">
</g>
<g
   id="g28">
</g>
<g
   id="g30">
</g>
<g
   id="g32">
</g>
<g
   id="g34">
</g>
</svg>