<?xml version="1.0" encoding="UTF-8" standalone="no"?>
<!-- Generator: Adobe Illustrator 17.1.0, SVG Export Plug-In . SVG Version: 6.00 Build 0)  -->

<svg
   xmlns:dc="http://purl.org/dc/elements/1.1/"
   xmlns:cc="http://creativecommons.org/ns#"
   xmlns:rdf="http://www.w3.org/1999/02/22-rdf-syntax-ns#"
   xmlns:svg="http://www.w3.org/2000/svg"
   xmlns="http://www.w3.org/2000/svg"
   xmlns:sodipodi="http://sodipodi.sourceforge.net/DTD/sodipodi-0.dtd"
   xmlns:inkscape="http://www.inkscape.org/namespaces/inkscape"
   version="1.1"
   id="Capa_1"
   x="0px"
   y="0px"
   viewBox="0 0 346.013 346.013"
   style="enable-background:new 0 0 346.013 346.013;"
   xml:space="preserve"
   sodipodi:docname="alarm.svg"
   inkscape:version="0.92.3 (2405546, 2018-03-11)"><metadata
   id="metadata51"><rdf:RDF><cc:Work
       rdf:about=""><dc:format>image/svg+xml</dc:format><dc:type
         rdf:resource="http://purl.org/dc/dcmitype/StillImage" /></cc:Work></rdf:RDF></metadata><defs
   id="defs49" /><sodipodi:namedview
   pagecolor="#ffffff"
   bordercolor="#666666"
   borderopacity="1"
   objecttolerance="10"
   gridtolerance="10"
   guidetolerance="10"
   inkscape:pageopacity="0"
   inkscape:pageshadow="2"
   inkscape:window-width="1366"
   inkscape:window-height="670"
   id="namedview47"
   showgrid="false"
   inkscape:zoom="1.4520318"
   inkscape:cx="173.0065"
   inkscape:cy="173.0065"
   inkscape:window-x="0"
   inkscape:window-y="283"
   inkscape:window-maximized="1"
   inkscape:current-layer="Capa_1" />
<g
   id="g14"
   style="fill:#ffffff"
   inkscape:export-xdpi="240"
   inkscape:export-ydpi="240">
	<path
   d="m 261.752,242.918 c -2.429,-2.128 -4.723,-4.138 -5.832,-6.133 -0.088,-0.161 -0.184,-0.324 -0.32,-0.549 -4.244,-6.792 -5.837,-23.742 -6.788,-33.866 -0.142,-1.521 -0.279,-2.975 -0.416,-4.336 -0.014,-0.138 -0.03,-0.274 -0.058,-0.482 -2.181,-15.25 -7.596,-37.241 -21.01,-55.398 -9.281,-12.563 -20.811,-21.047 -34.316,-25.263 -1.391,-9.796 -9.832,-17.353 -20.006,-17.353 -10.174,0 -18.617,7.559 -20.006,17.355 -13.504,4.213 -25.035,12.697 -34.316,25.262 -13.414,18.154 -18.83,40.146 -21.01,55.396 l -0.016,0.122 c -0.017,0.131 -0.032,0.259 -0.04,0.353 -0.138,1.369 -0.275,2.82 -0.417,4.34 -0.952,10.129 -2.545,27.082 -6.828,33.934 -0.076,0.125 -0.147,0.25 -0.255,0.438 -1.134,2.041 -3.428,4.053 -5.855,6.182 -5.969,5.23 -18.388,16.116 -8.156,35.115 1.979,3.677 5.804,5.961 9.98,5.961 h 173.839 c 4.173,0 7.996,-2.283 9.979,-5.96 10.23,-18.996 -2.184,-29.883 -8.153,-35.118 z"
   id="path2"
   inkscape:connector-curvature="0"
   style="fill:#ffffff" />
	<path
   d="m 192.752,302.979 h -40.214 c -1.652,0 -3.205,0.723 -4.262,1.981 -1.982,2.362 -1.427,5.51 -1.096,7.39 l 0.026,0.151 c 2.188,12.541 13.028,21.644 25.776,21.644 12.984,0 24.125,-9.685 25.912,-22.511 l 0.039,-0.21 c 0.221,-1.165 0.737,-3.892 -1.189,-6.219 -0.689,-0.831 -2.253,-2.226 -4.992,-2.226 z"
   id="path4"
   inkscape:connector-curvature="0"
   style="fill:#ffffff" />
	<path
   d="M 101.631,24.448 C 100.293,16.272 92.585,10.725 84.404,12.069 61.8,15.77 40.925,27.203 25.623,44.26 10.266,61.382 1.415,82.568 0.028,105.529 c -0.5,8.269 5.799,15.378 14.068,15.877 0.308,0.019 0.614,0.028 0.918,0.028 7.871,0 14.478,-6.135 14.958,-14.097 C 30.947,91.205 37.165,76.32 47.954,64.292 58.861,52.133 73.141,44.312 89.25,41.674 c 8.178,-1.339 13.72,-9.051 12.381,-17.226 z"
   id="path6"
   inkscape:connector-curvature="0"
   style="fill:#ffffff" />
	<path
   d="m 83.133,128.277 c 0.519,-8.591 3.831,-16.518 9.576,-22.924 5.809,-6.475 13.414,-10.64 21.993,-12.045 8.175,-1.339 13.718,-9.051 12.379,-17.227 -1.338,-8.175 -9.045,-13.723 -17.227,-12.379 -15.182,2.485 -29.202,10.163 -39.478,21.619 -10.167,11.334 -16.271,25.946 -17.189,41.146 -0.5,8.269 5.799,15.378 14.068,15.877 0.308,0.019 0.613,0.028 0.918,0.028 7.871,10e-4 14.479,-6.134 14.96,-14.095 z"
   id="path8"
   inkscape:connector-curvature="0"
   style="fill:#ffffff" />
	<path
   d="M 345.985,105.529 C 344.598,82.568 335.747,61.382 320.389,44.259 305.088,27.202 284.213,15.77 261.609,12.069 c -8.172,-1.346 -15.889,4.203 -17.227,12.379 -1.339,8.175 4.203,15.888 12.379,17.227 16.109,2.639 30.39,10.459 41.296,22.617 10.79,12.029 17.008,26.914 17.982,43.046 0.48,7.962 7.087,14.097 14.959,14.097 0.304,0 0.61,-0.01 0.918,-0.028 8.27,-0.5 14.569,-7.61 14.069,-15.878 z"
   id="path10"
   inkscape:connector-curvature="0"
   style="fill:#ffffff" />
	<path
   d="M 275.636,85.321 C 265.36,73.866 251.339,66.188 236.157,63.703 c -8.179,-1.344 -15.888,4.203 -17.227,12.379 -1.339,8.176 4.204,15.889 12.379,17.227 8.58,1.405 16.186,5.57 21.994,12.045 5.746,6.406 9.057,14.333 9.575,22.923 0.48,7.962 7.087,14.097 14.959,14.097 0.304,0 0.609,-0.009 0.917,-0.027 8.27,-0.499 14.568,-7.606 14.069,-15.876 -0.915,-15.201 -7.02,-29.814 -17.187,-41.15 z"
   id="path12"
   inkscape:connector-curvature="0"
   style="fill:#ffffff" />
</g>
<g
   id="g16">
</g>
<g
   id="g18">
</g>
<g
   id="g20">
</g>
<g
   id="g22">
</g>
<g
   id="g24">
</g>
<g
   id="g26">
</g>
<g
   id="g28">
</g>
<g
   id="g30">
</g>
<g
   id="g32">
</g>
<g
   id="g34">
</g>
<g
   id="g36">
</g>
<g
   id="g38">
</g>
<g
   id="g40">
</g>
<g
   id="g42">
</g>
<g
   id="g44">
</g>
</svg>