<?xml version="1.0" encoding="UTF-8" standalone="no"?>
<!-- Generator: Adobe Illustrator 17.1.0, SVG Export Plug-In . SVG Version: 6.00 Build 0)  -->

<svg
   xmlns:dc="http://purl.org/dc/elements/1.1/"
   xmlns:cc="http://creativecommons.org/ns#"
   xmlns:rdf="http://www.w3.org/1999/02/22-rdf-syntax-ns#"
   xmlns:svg="http://www.w3.org/2000/svg"
   xmlns="http://www.w3.org/2000/svg"
   xmlns:sodipodi="http://sodipodi.sourceforge.net/DTD/sodipodi-0.dtd"
   xmlns:inkscape="http://www.inkscape.org/namespaces/inkscape"
   version="1.1"
   id="Capa_1"
   x="0px"
   y="0px"
   viewBox="0 0 356.159 356.159"
   style="enable-background:new 0 0 356.159 356.159;"
   xml:space="preserve"
   sodipodi:docname="snooze.svg"
   inkscape:version="0.92.3 (2405546, 2018-03-11)"
   inkscape:export-filename="/home/artaud/prog/urbandroid/source/SleepAsFitbit/resources/snooze.png"
   inkscape:export-xdpi="240"
   inkscape:export-ydpi="240"><metadata
   id="metadata43"><rdf:RDF><cc:Work
       rdf:about=""><dc:format>image/svg+xml</dc:format><dc:type
         rdf:resource="http://purl.org/dc/dcmitype/StillImage" /></cc:Work></rdf:RDF></metadata><defs
   id="defs41" /><sodipodi:namedview
   pagecolor="#ffffff"
   bordercolor="#666666"
   borderopacity="1"
   objecttolerance="10"
   gridtolerance="10"
   guidetolerance="10"
   inkscape:pageopacity="0"
   inkscape:pageshadow="2"
   inkscape:window-width="1366"
   inkscape:window-height="670"
   id="namedview39"
   showgrid="false"
   inkscape:zoom="1.1302193"
   inkscape:cx="6.0008692"
   inkscape:cy="148.03749"
   inkscape:window-x="0"
   inkscape:window-y="283"
   inkscape:window-maximized="1"
   inkscape:current-layer="Capa_1" />
<g
   id="g6"
   style="opacity:1;fill:#ffffff">
	<path
   d="m 263.302,140.214 c -5.6,-67.6 -62.399,-120.9 -131.42,-120.9 C 59.162,19.314 0,78.476 0,151.196 c 0,72.72 59.162,131.881 131.881,131.881 12.284,0 24.281,-1.653 35.862,-4.926 15.291,34.537 49.885,58.695 90.021,58.695 54.255,0 98.395,-44.14 98.395,-98.396 0,-52.397 -41.168,-95.354 -92.857,-98.236 z m -124.289,28.461 c -5.139,0 -10.084,-1.714 -14.041,-4.952 -5.142,-4.208 -8.091,-10.565 -8.091,-17.441 V 73.871 c 0,-8.284 6.716,-15 15,-15 8.284,0 15,6.716 15,15 v 63.087 l 44.195,-8.905 c 8.117,-1.644 16.031,3.62 17.667,11.741 1.636,8.121 -3.621,16.031 -11.742,17.667 l -53.335,10.747 c -1.553,0.313 -3.112,0.467 -4.653,0.467 z m 118.751,138.17 c -37.713,0 -68.396,-30.682 -68.396,-68.396 0,-37.713 30.682,-68.395 68.396,-68.395 37.713,0 68.395,30.682 68.395,68.395 0,37.715 -30.682,68.396 -68.395,68.396 z"
   id="path2"
   inkscape:connector-curvature="0"
   style="fill:#ffffff" />
	<path
   d="m 292.034,256.228 c -1.11,-0.972 -2.157,-1.891 -2.781,-3.013 -0.02,-0.037 -0.043,-0.075 -0.066,-0.113 -1.953,-3.125 -2.594,-9.945 -3.018,-14.458 -0.057,-0.605 -0.111,-1.184 -0.166,-1.727 -0.003,-0.036 -0.008,-0.071 -0.013,-0.107 -0.842,-5.886 -2.921,-14.363 -8.054,-21.31 -3.758,-5.087 -8.552,-8.398 -14.074,-9.781 v -0.397 c 0,-3.363 -2.736,-6.099 -6.099,-6.099 -3.363,0 -6.099,2.736 -6.099,6.099 v 0.398 c -5.522,1.382 -10.316,4.693 -14.074,9.781 -5.132,6.946 -7.212,15.423 -8.054,21.309 -0.005,0.036 -0.009,0.072 -0.013,0.107 -0.055,0.545 -0.109,1.122 -0.166,1.727 -0.424,4.514 -1.066,11.335 -3.018,14.458 -0.023,0.037 -0.044,0.075 -0.066,0.113 -0.623,1.121 -1.67,2.04 -2.779,3.013 -2.459,2.155 -6.173,5.412 -2.827,11.625 0.443,0.822 1.302,1.336 2.237,1.336 h 26.65 c -0.44,0 -0.246,0.992 -0.162,1.469 0.696,3.988 4.175,7.019 8.362,7.019 4.287,0 7.832,-3.178 8.407,-7.306 0.054,-0.386 0.329,-1.182 -0.479,-1.182 h 26.94 c 0.935,0 1.793,-0.514 2.237,-1.336 3.347,-6.213 -0.368,-9.47 -2.825,-11.625 z"
   id="path4"
   inkscape:connector-curvature="0"
   style="fill:#ffffff" />
</g>
<g
   id="g8">
</g>
<g
   id="g10">
</g>
<g
   id="g12">
</g>
<g
   id="g14">
</g>
<g
   id="g16">
</g>
<g
   id="g18">
</g>
<g
   id="g20">
</g>
<g
   id="g22">
</g>
<g
   id="g24">
</g>
<g
   id="g26">
</g>
<g
   id="g28">
</g>
<g
   id="g30">
</g>
<g
   id="g32">
</g>
<g
   id="g34">
</g>
<g
   id="g36">
</g>
</svg>